<?xml version="1.0" encoding="UTF-8"?>
<svg xmlns="http://www.w3.org/2000/svg" viewBox="0 0 256 256">
  <g id="bg">
    <rect width="256" height="256" style="fill: #041b26;"/>
  </g>
  <g id="fg">
    <path d="m214.96,73.83l-83.53-48.23c-2.12-1.22-4.74-1.22-6.86,0l-83.53,48.23c-2.12,1.23-3.43,3.49-3.43,5.94v96.45c0,2.45,1.31,4.71,3.43,5.94l83.53,48.23c1.06.61,2.24.92,3.43.92s2.37-.31,3.43-.92l83.53-48.23c2.12-1.23,3.43-3.49,3.43-5.94v-96.45c0-2.45-1.31-4.71-3.43-5.94Zm-115.62,27.02h-15.98v65.14h-15.86v-65.14h-15.41v-13.61h47.25v13.61Zm53.89,65.14h-16.2l-8.21-23.63-8.33,23.63h-16.2l16.09-39.38-16.09-39.38h16.31l8.21,23.74,8.21-23.74h16.2l-16.09,39.38,16.09,39.38Zm52.2-65.14h-15.98v65.14h-15.86v-65.14h-15.41v-13.61h47.25v13.61Z" style="fill: #fff;"/>
  </g>
</svg>