<?xml version="1.0" encoding="UTF-8"?>
<svg id="Layer_1" data-name="Layer 1" xmlns="http://www.w3.org/2000/svg" viewBox="0 0 512 256">
  <path d="m89.94,126.32c-.36-.26-.75-.49-1.12-.73,1.94-1.16,3.51-2.63,4.67-4.42,1.73-2.67,2.6-6.1,2.6-10.3,0-6.27-1.88-11.02-5.65-14.25-3.77-3.23-8.98-4.85-15.65-4.85h-17.9v70h20.1c3.87,0,7.33-.75,10.4-2.25,3.07-1.5,5.47-3.72,7.2-6.65,1.73-2.93,2.57-6.53,2.5-10.8-.07-7.13-2.45-12.38-7.15-15.75Zm-18.95-22.45h4.1c2.27,0,4.03.73,5.3,2.2,1.27,1.47,1.9,3.57,1.9,6.3s-.63,4.62-1.9,6.05c-1.27,1.43-3.03,2.15-5.3,2.15h-4.1v-16.7Zm10.1,43.3c-1.27,1.6-3,2.4-5.2,2.4h-4.9v-18.8h5c2.2,0,3.92.85,5.15,2.55,1.23,1.7,1.85,4.05,1.85,7.05s-.63,5.2-1.9,6.8Z" style="fill: #041b26;"/>
  <polygon points="117.99 91.77 103.89 91.77 103.89 161.77 140.69 161.77 140.69 149.67 117.99 149.67 117.99 91.77" style="fill: #041b26;"/>
  <path d="m176.34,93.42c-3.03-1.63-6.58-2.45-10.65-2.45s-7.53.82-10.6,2.45c-3.07,1.63-5.43,3.95-7.1,6.95-1.67,3-2.5,6.47-2.5,10.4v32c0,3.93.83,7.4,2.5,10.4,1.67,3,4.03,5.32,7.1,6.95,3.07,1.63,6.6,2.45,10.6,2.45s7.62-.82,10.65-2.45c3.03-1.63,5.4-3.95,7.1-6.95,1.7-3,2.55-6.47,2.55-10.4v-32c0-3.93-.85-7.4-2.55-10.4-1.7-3-4.07-5.32-7.1-6.95Zm-4.45,49.95c0,2.13-.57,3.85-1.7,5.15-1.13,1.3-2.63,1.95-4.5,1.95s-3.35-.65-4.45-1.95-1.65-3.02-1.65-5.15v-33.2c0-2.13.55-3.85,1.65-5.15s2.58-1.95,4.45-1.95,3.37.65,4.5,1.95c1.13,1.3,1.7,3.02,1.7,5.15v33.2Z" style="fill: #041b26;"/>
  <path d="m223.19,93.32c-3-1.57-6.5-2.35-10.5-2.35s-7.42.78-10.45,2.35c-3.03,1.57-5.37,3.83-7,6.8-1.63,2.97-2.45,6.42-2.45,10.35v32.4c0,3.93.82,7.4,2.45,10.4,1.63,3,3.97,5.3,7,6.9,3.03,1.6,6.52,2.4,10.45,2.4s7.5-.8,10.5-2.4c3-1.6,5.33-3.9,7-6.9,1.67-3,2.5-6.47,2.5-10.4v-2.2l-14.1-.5v3.9c0,1.93-.53,3.48-1.6,4.65-1.07,1.17-2.5,1.75-4.3,1.75s-3.13-.58-4.2-1.75c-1.07-1.17-1.6-2.72-1.6-4.65v-34.5c0-2,.53-3.58,1.6-4.75,1.07-1.17,2.47-1.75,4.2-1.75s3.23.58,4.3,1.75c1.07,1.17,1.6,2.75,1.6,4.75v3.8l14.1-.6v-2.3c0-3.93-.83-7.38-2.5-10.35-1.67-2.97-4-5.23-7-6.8Z" style="fill: #041b26;"/>
  <polygon points="283.19 91.77 268.19 91.77 254.29 119.47 254.29 91.77 240.19 91.77 240.19 161.77 254.29 161.77 254.29 140.17 257.79 133.97 268.89 161.77 283.89 161.77 267.49 122.27 283.19 91.77" style="fill: #041b26;"/>
  <path d="m452.06,79.85l-74.25-42.87c-1.89-1.09-4.21-1.09-6.1,0l-74.25,42.87c-1.89,1.09-3.05,3.1-3.05,5.28v85.73c0,2.18,1.16,4.19,3.05,5.28l74.25,42.87c.94.54,2,.82,3.05.82s2.1-.27,3.05-.82l74.25-42.87c1.89-1.09,3.05-3.1,3.05-5.28v-85.73c0-2.18-1.16-4.19-3.05-5.28Zm-102.77,24.02h-14.2v57.9h-14.1v-57.9h-13.7v-12.1h42v12.1Zm47.9,57.9h-14.4l-7.3-21-7.4,21h-14.4l14.3-35-14.3-35h14.5l7.3,21.1,7.3-21.1h14.4l-14.3,35,14.3,35Zm46.4-57.9h-14.2v57.9h-14.1v-57.9h-13.7v-12.1h42v12.1Z" style="fill: #041b26;"/>
</svg>