<?xml version="1.0" encoding="UTF-8"?>
<svg xmlns="http://www.w3.org/2000/svg" viewBox="0 0 512 256">
  <g id="bg">
    <rect width="512" height="256" style="fill: #041b26;"/>
  </g>
  <g id="fg">
    <g>
      <path d="m69.18,126.11c-.41-.29-.84-.55-1.26-.82,2.19-1.3,3.95-2.95,5.26-4.97,1.95-3,2.93-6.86,2.93-11.59,0-7.05-2.12-12.39-6.36-16.03-4.24-3.64-10.11-5.46-17.61-5.46h-20.14v78.75h22.61c4.35,0,8.25-.84,11.7-2.53,3.45-1.69,6.15-4.18,8.1-7.48,1.95-3.3,2.89-7.35,2.81-12.15-.08-8.02-2.76-13.93-8.04-17.72Zm-21.32-25.26h4.61c2.55,0,4.54.83,5.96,2.47,1.42,1.65,2.14,4.01,2.14,7.09s-.71,5.19-2.14,6.81c-1.43,1.61-3.41,2.42-5.96,2.42h-4.61v-18.79Zm11.36,48.71c-1.43,1.8-3.38,2.7-5.85,2.7h-5.51v-21.15h5.63c2.48,0,4.41.96,5.79,2.87,1.39,1.91,2.08,4.56,2.08,7.93s-.71,5.85-2.14,7.65Z" style="fill: #fff;"/>
      <polygon points="100.74 87.24 84.87 87.24 84.87 166 126.28 166 126.28 152.38 100.74 152.38 100.74 87.24" style="fill: #fff;"/>
      <path d="m166.38,89.1c-3.41-1.84-7.41-2.76-11.98-2.76s-8.48.92-11.93,2.76c-3.45,1.84-6.11,4.44-7.99,7.82-1.88,3.38-2.81,7.28-2.81,11.7v36c0,4.43.94,8.33,2.81,11.7,1.87,3.38,4.54,5.98,7.99,7.82,3.45,1.84,7.43,2.76,11.93,2.76s8.57-.92,11.98-2.76c3.41-1.84,6.08-4.44,7.99-7.82,1.91-3.38,2.87-7.27,2.87-11.7v-36c0-4.42-.96-8.32-2.87-11.7-1.91-3.38-4.58-5.98-7.99-7.82Zm-5.01,56.2c0,2.4-.64,4.33-1.91,5.79-1.28,1.46-2.96,2.19-5.06,2.19s-3.77-.73-5.01-2.19-1.86-3.39-1.86-5.79v-37.35c0-2.4.62-4.33,1.86-5.79s2.91-2.19,5.01-2.19,3.79.73,5.06,2.19c1.27,1.46,1.91,3.39,1.91,5.79v37.35Z" style="fill: #fff;"/>
      <path d="m219.09,88.99c-3.38-1.76-7.31-2.64-11.81-2.64s-8.34.88-11.76,2.64c-3.41,1.76-6.04,4.31-7.88,7.65-1.84,3.34-2.76,7.22-2.76,11.64v36.45c0,4.43.92,8.32,2.76,11.7,1.84,3.38,4.46,5.96,7.88,7.76,3.41,1.8,7.33,2.7,11.76,2.7s8.44-.9,11.81-2.7c3.38-1.8,6-4.39,7.88-7.76,1.87-3.38,2.81-7.27,2.81-11.7v-2.48l-15.86-.56v4.39c0,2.18-.6,3.92-1.8,5.23-1.2,1.31-2.81,1.97-4.84,1.97s-3.53-.66-4.72-1.97c-1.2-1.31-1.8-3.06-1.8-5.23v-38.81c0-2.25.6-4.03,1.8-5.34,1.2-1.31,2.77-1.97,4.72-1.97s3.64.66,4.84,1.97c1.2,1.31,1.8,3.09,1.8,5.34v4.28l15.86-.68v-2.59c0-4.42-.94-8.31-2.81-11.64-1.88-3.34-4.5-5.89-7.88-7.65Z" style="fill: #fff;"/>
      <polygon points="286.59 87.24 269.71 87.24 254.08 118.41 254.08 87.24 238.21 87.24 238.21 166 254.08 166 254.08 141.7 258.01 134.72 270.5 166 287.38 166 268.93 121.56 286.59 87.24" style="fill: #fff;"/>
    </g>
    <path d="m476.57,73.83l-83.53-48.23c-2.12-1.22-4.74-1.22-6.86,0l-83.53,48.23c-2.12,1.23-3.43,3.49-3.43,5.94v96.45c0,2.45,1.31,4.71,3.43,5.94l83.53,48.23c1.06.61,2.24.92,3.43.92s2.37-.31,3.43-.92l83.53-48.23c2.12-1.23,3.43-3.49,3.43-5.94v-96.45c0-2.45-1.31-4.71-3.43-5.94Zm-115.62,27.02h-15.98v65.14h-15.86v-65.14h-15.41v-13.61h47.25v13.61Zm53.89,65.14h-16.2l-8.21-23.63-8.33,23.63h-16.2l16.09-39.38-16.09-39.38h16.31l8.21,23.74,8.21-23.74h16.2l-16.09,39.38,16.09,39.38Zm52.2-65.14h-15.98v65.14h-15.86v-65.14h-15.41v-13.61h47.25v13.61Z" style="fill: #fff;"/>
  </g>
</svg>